/* XPM */
static const char *SOR_WxToolButton7_XPM[]={
/* SOR_WxToolButton7 */
"20 20 3 1",
"      c None",
"0     c #ECECED",
"1     c #FF0000",
"                    ",
"                    ",
"                    ",
"                    ",
"                    ",
"     01000000010    ",
"     11100000111    ",
"     01110001110    ",
"     00111011100    ",
"     00011111000    ",
"     00001110000    ",
"     00011111000    ",
"     00111011100    ",
"     01110001110    ",
"     11100000111    ",
"     01000000010    ",
"                    ",
"                    ",
"                    ",
"                    "};

