/* XPM */
static const char *SOR_WxToolButton3_XPM[]={
/* SOR_WxToolButton3 */
"20 20 3 1",
"      c None",
"0     c #FF0000",
"1     c #000000",
"                    ",
"                    ",
"               000  ",
"           11110 0  ",
"         11    000  ",
"        1           ",
"       1            ",
"      1             ",
"     1              ",
"    1               ",
"    1               ",
"   1                ",
"   1                ",
"   1                ",
"   1                ",
"  000               ",
"  0 0               ",
"  000               ",
"                    ",
"                    "};

