/* XPM */
static const char *SOR_WxToolButton2_XPM[]={
/* SOR_WxToolButton2 */
"20 20 3 1",
"      c None",
"0     c #FF0000",
"1     c #000000",
"                    ",
"                    ",
"               000  ",
"               0 0  ",
"               000  ",
"  000           1   ",
"  0 0           1   ",
"  000           1   ",
"   1 1          1   ",
"   1  11        1   ",
"   1    1       1   ",
"   1     11     1   ",
"   1       1    1   ",
"   1        11  1   ",
"   1          1000  ",
"  000          0 0  ",
"  0 0          000  ",
"  000               ",
"                    ",
"                    "};

