/* XPM */
static const char *SOR_WxToolButton1_XPM[]={
/* SOR_WxToolButton1 */
"20 20 3 1",
"      c None",
"0     c #FF0000",
"1     c #000000",
"                    ",
"                    ",
"               000  ",
"               0 0  ",
"               000  ",
"              1     ",
"             1      ",
"            1       ",
"           1        ",
"          1         ",
"         1          ",
"        1           ",
"       1            ",
"      1             ",
"     1              ",
"  000               ",
"  0 0               ",
"  000               ",
"                    ",
"                    "};

