/* XPM */
static const char *SOR_WxToolButton5_XPM[]={
/* SOR_WxToolButton5 */
"20 20 17 1",
"      c None",
"0     c #FF0000",
"1     c #FFC800",
"2     c #1BC900",
"3     c #002AFF",
"4     c #FF3A3A",
"5     c #FFE32F",
"6     c #2DCF00",
"7     c #3355FF",
"8     c #FF6868",
"9     c #FFEE59",
"a     c #5DCF3E",
"b     c #6080FF",
"c     c #FF9D9D",
"d     c #FFFB88",
"e     c #89CF72",
"f     c #8BA2FF",
"                    ",
"                    ",
"  0000111122223333  ",
"  0000111122223333  ",
"  0000111122223333  ",
"  0000111122223333  ",
"  4444555566667777  ",
"  4444555566667777  ",
"  4444555566667777  ",
"  4444555566667777  ",
"  88889999aaaabbbb  ",
"  88889999aaaabbbb  ",
"  88889999aaaabbbb  ",
"  88889999aaaabbbb  ",
"  ccccddddeeeeffff  ",
"  ccccddddeeeeffff  ",
"  ccccddddeeeeffff  ",
"  ccccddddeeeeffff  ",
"                    ",
"                    "};

